{
    "asset" : {
        "generator" : "Khronos glTF Blender I/O v1.7.33",
        "version" : "2.0"
    },
    "extensionsUsed" : [
        "KHR_materials_unlit"
    ],
    "scene" : 0,
    "scenes" : [
        {
            "name" : "Scene",
            "nodes" : [
                0,
                1,
                2,
                3,
                4,
                5
            ]
        }
    ],
    "nodes" : [
        {
            "name" : "0-Area",
            "translation" : [
                0,
                4.726696968078613,
                0
            ]
        },
        {
            "mesh" : 0,
            "name" : "mainplane"
        },
        {
            "mesh" : 1,
            "name" : "ceiling"
        },
        {
            "mesh" : 2,
            "name" : "backside"
        },
        {
            "mesh" : 3,
            "name" : "bigtv",
            "translation" : [
                0,
                2.329435110092163,
                -5.66119909286499
            ]
        },
        {
            "mesh" : 4,
            "name" : "sofabottom",
            "translation" : [
                1.3269635438919067,
                0.6959588527679443,
                4.02194881439209
            ]
        }
    ],
    "materials" : [
        {
            "doubleSided" : true,
            "extensions" : {
                "KHR_materials_unlit" : {}
            },
            "name" : "whitecol",
            "pbrMetallicRoughness" : {
                "baseColorTexture" : {
                    "index" : 0
                },
                "metallicFactor" : 0,
                "roughnessFactor" : 0.9
            }
        },
        {
            "doubleSided" : true,
            "extensions" : {
                "KHR_materials_unlit" : {}
            },
            "name" : "ceilingcolor",
            "pbrMetallicRoughness" : {
                "baseColorTexture" : {
                    "index" : 1
                },
                "metallicFactor" : 0,
                "roughnessFactor" : 0.9
            }
        },
        {
            "doubleSided" : true,
            "extensions" : {
                "KHR_materials_unlit" : {}
            },
            "name" : "backsidecol",
            "pbrMetallicRoughness" : {
                "baseColorTexture" : {
                    "index" : 2
                },
                "metallicFactor" : 0,
                "roughnessFactor" : 0.9
            }
        },
        {
            "doubleSided" : true,
            "extensions" : {
                "KHR_materials_unlit" : {}
            },
            "name" : "tvskin",
            "pbrMetallicRoughness" : {
                "baseColorTexture" : {
                    "index" : 3
                },
                "metallicFactor" : 0,
                "roughnessFactor" : 0.9
            }
        },
        {
            "doubleSided" : true,
            "name" : "tvscreen",
            "pbrMetallicRoughness" : {
                "baseColorFactor" : [
                    0.4317535161972046,
                    0.6661993265151978,
                    0.8000000715255737,
                    1
                ],
                "metallicFactor" : 0,
                "roughnessFactor" : 0.5
            }
        },
        {
            "doubleSided" : true,
            "extensions" : {
                "KHR_materials_unlit" : {}
            },
            "name" : "sofa",
            "pbrMetallicRoughness" : {
                "baseColorTexture" : {
                    "index" : 4
                },
                "metallicFactor" : 0,
                "roughnessFactor" : 0.9
            }
        }
    ],
    "meshes" : [
        {
            "name" : "Plane",
            "primitives" : [
                {
                    "attributes" : {
                        "POSITION" : 0,
                        "NORMAL" : 1,
                        "TEXCOORD_0" : 2
                    },
                    "indices" : 3,
                    "material" : 0
                }
            ]
        },
        {
            "name" : "Plane.003",
            "primitives" : [
                {
                    "attributes" : {
                        "POSITION" : 4,
                        "NORMAL" : 5,
                        "TEXCOORD_0" : 6
                    },
                    "indices" : 7,
                    "material" : 1
                }
            ]
        },
        {
            "name" : "Plane.004",
            "primitives" : [
                {
                    "attributes" : {
                        "POSITION" : 8,
                        "NORMAL" : 9,
                        "TEXCOORD_0" : 10
                    },
                    "indices" : 11,
                    "material" : 2
                }
            ]
        },
        {
            "name" : "Plane.005",
            "primitives" : [
                {
                    "attributes" : {
                        "POSITION" : 12,
                        "NORMAL" : 13,
                        "TEXCOORD_0" : 14
                    },
                    "indices" : 15,
                    "material" : 3
                },
                {
                    "attributes" : {
                        "POSITION" : 16,
                        "NORMAL" : 17,
                        "TEXCOORD_0" : 18
                    },
                    "indices" : 19,
                    "material" : 4
                }
            ]
        },
        {
            "name" : "Cube.005",
            "primitives" : [
                {
                    "attributes" : {
                        "POSITION" : 20,
                        "NORMAL" : 21,
                        "TEXCOORD_0" : 22
                    },
                    "indices" : 23,
                    "material" : 5
                }
            ]
        }
    ],
    "textures" : [
        {
            "sampler" : 0,
            "source" : 0
        },
        {
            "sampler" : 0,
            "source" : 0
        },
        {
            "sampler" : 0,
            "source" : 0
        },
        {
            "sampler" : 0,
            "source" : 0
        },
        {
            "sampler" : 0,
            "source" : 0
        }
    ],
    "images" : [
        {
            "bufferView" : 4,
            "mimeType" : "image/jpeg",
            "name" : "allmap"
        }
    ],
    "accessors" : [
        {
            "bufferView" : 0,
            "componentType" : 5126,
            "count" : 82,
            "max" : [
                6.004034996032715,
                4.658870220184326,
                5
            ],
            "min" : [
                -6.004034996032715,
                0,
                -5.709959983825684
            ],
            "type" : "VEC3"
        },
        {
            "bufferView" : 1,
            "componentType" : 5126,
            "count" : 82,
            "type" : "VEC3"
        },
        {
            "bufferView" : 2,
            "componentType" : 5126,
            "count" : 82,
            "type" : "VEC2"
        },
        {
            "bufferView" : 3,
            "componentType" : 5123,
            "count" : 132,
            "type" : "SCALAR"
        },
        {
            "bufferView" : 5,
            "componentType" : 5126,
            "count" : 28,
            "max" : [
                5,
                4.785743713378906,
                5
            ],
            "min" : [
                -5,
                4.658870220184326,
                -5
            ],
            "type" : "VEC3"
        },
        {
            "bufferView" : 6,
            "componentType" : 5126,
            "count" : 28,
            "type" : "VEC3"
        },
        {
            "bufferView" : 7,
            "componentType" : 5126,
            "count" : 28,
            "type" : "VEC2"
        },
        {
            "bufferView" : 8,
            "componentType" : 5123,
            "count" : 54,
            "type" : "SCALAR"
        },
        {
            "bufferView" : 9,
            "componentType" : 5126,
            "count" : 28,
            "max" : [
                5,
                4.658870220184326,
                5.966383934020996
            ],
            "min" : [
                -5,
                0,
                5
            ],
            "type" : "VEC3"
        },
        {
            "bufferView" : 10,
            "componentType" : 5126,
            "count" : 28,
            "type" : "VEC3"
        },
        {
            "bufferView" : 11,
            "componentType" : 5126,
            "count" : 28,
            "type" : "VEC2"
        },
        {
            "bufferView" : 12,
            "componentType" : 5123,
            "count" : 42,
            "type" : "SCALAR"
        },
        {
            "bufferView" : 13,
            "componentType" : 5126,
            "count" : 228,
            "max" : [
                2.8305399417877197,
                1.1986618041992188,
                0.07000000029802322
            ],
            "min" : [
                -2.8305399417877197,
                -1.1986616849899292,
                0
            ],
            "type" : "VEC3"
        },
        {
            "bufferView" : 14,
            "componentType" : 5126,
            "count" : 228,
            "type" : "VEC3"
        },
        {
            "bufferView" : 15,
            "componentType" : 5126,
            "count" : 228,
            "type" : "VEC2"
        },
        {
            "bufferView" : 16,
            "componentType" : 5123,
            "count" : 342,
            "type" : "SCALAR"
        },
        {
            "bufferView" : 17,
            "componentType" : 5126,
            "count" : 4,
            "max" : [
                2.764413356781006,
                1.1325352191925049,
                0.07000000029802322
            ],
            "min" : [
                -2.764413356781006,
                -1.1325350999832153,
                0.07000000029802322
            ],
            "type" : "VEC3"
        },
        {
            "bufferView" : 18,
            "componentType" : 5126,
            "count" : 4,
            "type" : "VEC3"
        },
        {
            "bufferView" : 19,
            "componentType" : 5126,
            "count" : 4,
            "type" : "VEC2"
        },
        {
            "bufferView" : 20,
            "componentType" : 5123,
            "count" : 6,
            "type" : "SCALAR"
        },
        {
            "bufferView" : 21,
            "componentType" : 5126,
            "count" : 1910,
            "max" : [
                1.250472903251648,
                0.9262639880180359,
                0.5263614654541016
            ],
            "min" : [
                -3.904399871826172,
                -0.6113266944885254,
                -1.4736385345458984
            ],
            "type" : "VEC3"
        },
        {
            "bufferView" : 22,
            "componentType" : 5126,
            "count" : 1910,
            "type" : "VEC3"
        },
        {
            "bufferView" : 23,
            "componentType" : 5126,
            "count" : 1910,
            "type" : "VEC2"
        },
        {
            "bufferView" : 24,
            "componentType" : 5123,
            "count" : 2892,
            "type" : "SCALAR"
        }
    ],
    "bufferViews" : [
        {
            "buffer" : 0,
            "byteLength" : 984,
            "byteOffset" : 0
        },
        {
            "buffer" : 0,
            "byteLength" : 984,
            "byteOffset" : 984
        },
        {
            "buffer" : 0,
            "byteLength" : 656,
            "byteOffset" : 1968
        },
        {
            "buffer" : 0,
            "byteLength" : 264,
            "byteOffset" : 2624
        },
        {
            "buffer" : 0,
            "byteLength" : 795420,
            "byteOffset" : 2888
        },
        {
            "buffer" : 0,
            "byteLength" : 336,
            "byteOffset" : 798308
        },
        {
            "buffer" : 0,
            "byteLength" : 336,
            "byteOffset" : 798644
        },
        {
            "buffer" : 0,
            "byteLength" : 224,
            "byteOffset" : 798980
        },
        {
            "buffer" : 0,
            "byteLength" : 108,
            "byteOffset" : 799204
        },
        {
            "buffer" : 0,
            "byteLength" : 336,
            "byteOffset" : 799312
        },
        {
            "buffer" : 0,
            "byteLength" : 336,
            "byteOffset" : 799648
        },
        {
            "buffer" : 0,
            "byteLength" : 224,
            "byteOffset" : 799984
        },
        {
            "buffer" : 0,
            "byteLength" : 84,
            "byteOffset" : 800208
        },
        {
            "buffer" : 0,
            "byteLength" : 2736,
            "byteOffset" : 800292
        },
        {
            "buffer" : 0,
            "byteLength" : 2736,
            "byteOffset" : 803028
        },
        {
            "buffer" : 0,
            "byteLength" : 1824,
            "byteOffset" : 805764
        },
        {
            "buffer" : 0,
            "byteLength" : 684,
            "byteOffset" : 807588
        },
        {
            "buffer" : 0,
            "byteLength" : 48,
            "byteOffset" : 808272
        },
        {
            "buffer" : 0,
            "byteLength" : 48,
            "byteOffset" : 808320
        },
        {
            "buffer" : 0,
            "byteLength" : 32,
            "byteOffset" : 808368
        },
        {
            "buffer" : 0,
            "byteLength" : 12,
            "byteOffset" : 808400
        },
        {
            "buffer" : 0,
            "byteLength" : 22920,
            "byteOffset" : 808412
        },
        {
            "buffer" : 0,
            "byteLength" : 22920,
            "byteOffset" : 831332
        },
        {
            "buffer" : 0,
            "byteLength" : 15280,
            "byteOffset" : 854252
        },
        {
            "buffer" : 0,
            "byteLength" : 5784,
            "byteOffset" : 869532
        }
    ],
    "samplers" : [
        {
            "magFilter" : 9729,
            "minFilter" : 9987
        }
    ],
    "buffers" : [
        {
            "byteLength" : 875316,
            "uri" : "data:application/octet-stream;base64,"
        }
    ]
}
